Coordinates
version=1
nRows=8
nColumns=63
inDegrees=yes

Units are S.I. units (second, meters, Newtons, ...)
If the header above contains a line with 'inDegrees', this indicates whether rotational values are in degrees (yes) or radians (no).

endheader
time	pelvis_tilt	pelvis_list	pelvis_rotation	pelvis_tx	pelvis_ty	pelvis_tz	hip_flexion_r	hip_adduction_r	hip_rotation_r	knee_angle_r	knee_angle_r_beta	ankle_angle_r	subtalar_angle_r	mtp_angle_r	hip_flexion_l	hip_adduction_l	hip_rotation_l	knee_angle_l	knee_angle_l_beta	ankle_angle_l	subtalar_angle_l	mtp_angle_l	L5_S1_Flex_Ext	L5_S1_Lat_Bending	L5_S1_axial_rotation	L4_L5_Flex_Ext	L4_L5_Lat_Bending	L4_L5_axial_rotation	L3_L4_Flex_Ext	L3_L4_Lat_Bending	L3_L4_axial_rotation	L2_L3_Flex_Ext	L2_L3_Lat_Bending	L2_L3_axial_rotation	L1_L2_Flex_Ext	L1_L2_Lat_Bending	L1_L2_axial_rotation	L1_T12_Flex_Ext	L1_T12_Lat_Bending	L1_T12_axial_rotation	Abs_r3	Abs_r2	Abs_r1	Abs_t1	Abs_t2	neck_flexion	neck_bending	neck_rotation	arm_flex_r	arm_add_r	arm_rot_r	elbow_flex_r	pro_sup_r	wrist_flex_r	wrist_dev_r	arm_flex_l	arm_add_l	arm_rot_l	elbow_flex_l	pro_sup_l	wrist_flex_l	wrist_dev_l
      0.00800000	    -56.92046991	     -4.29642884	     -8.55364971	     -0.26877223	      1.06988576	     -0.02704079	    123.55493242	     -4.08179027	     -9.11995802	    109.87947715	      1.91775866	     20.95433029	      6.82355293	      0.00000000	     91.69589347	    -12.31225834	      4.83612918	     43.98668080	      0.76771241	     -8.54360626	      0.93842484	      0.00000000	     -0.09814790	      0.89187650	      1.10498018	     -0.18227046	      1.18619574	      1.17404144	     -0.16124718	      2.16850852	      1.17404144	     -0.11217323	      2.16850852	      0.96685766	     -0.09114014	      1.81871455	      0.89779640	     -0.05608171	      1.38151669	      0.82873514	     -0.70106061	     10.08908531	      6.14556828	      0.00000000	      0.00000000	      0.00000000	      0.00000000	      0.00000001	     61.70261214	    -11.30454198	     14.77490181	     41.80521903	     70.34051745	      0.00000000	      2.88025855	     52.49349394	    -11.83293735	     -0.41316737	     49.61590650	     69.11074297	      0.00000000	      2.88025855
      0.01700000	    -57.22079130	     -5.00129291	     -8.13591332	     -0.26918426	      1.07025148	     -0.02881235	    125.55890061	     -4.50195328	     -9.83754052	    108.17634026	      1.88803331	     21.04988594	      6.02878513	      0.00000000	     90.82171510	    -12.53181851	      5.04904647	     44.78053940	      0.78156785	     -7.05983332	      5.71416508	      0.00000000	     -0.09725848	      1.01333100	      0.99713897	     -0.18061873	      1.34773023	      1.05946016	     -0.15978596	      2.46381298	      1.05946016	     -0.11115672	      2.46381298	      0.87249660	     -0.09031423	      2.06638457	      0.81017541	     -0.05557350	      1.56964971	      0.74785423	     -0.69470763	     11.46300290	      5.54578781	      0.00000000	      0.00000000	      0.00000000	      0.00000000	      0.00000001	     62.00908341	    -11.49973215	     15.32574311	     42.04488884	     68.90389776	      0.00000000	      3.01291145	     52.64977877	    -11.51147496	     -1.15683014	     49.43992608	     67.88560093	      0.00000000	      3.01291145
      0.02500000	    -57.27157102	     -5.11265673	     -7.77867398	     -0.26928387	      1.07047082	     -0.02927987	    125.80379081	     -4.67155891	     -9.73555664	    107.30657480	      1.87285304	     21.01339982	      5.91331797	      0.00000000	     90.87363979	    -12.30044476	      4.98926263	     45.71665241	      0.79790611	     -6.90208100	      5.56141771	      0.00000000	     -0.09701056	      1.02961706	      0.92784682	     -0.18015831	      1.36939069	      0.98583724	     -0.15937865	      2.50341092	      0.98583724	     -0.11087337	      2.50341092	      0.81186596	     -0.09008400	      2.09959511	      0.75387554	     -0.05543183	      1.59487683	      0.69588511	     -0.69293672	     11.64723413	      5.16040563	      0.00000000	      0.00000000	      0.00000000	      0.00000000	      0.00000001	     62.01316628	    -11.48750569	     15.33858929	     42.14445958	     68.62039041	      0.00000000	      3.04105652	     52.75444955	    -11.46963277	     -1.17935898	     49.43263988	     67.65386982	      0.00000000	      3.04105652
      0.03300000	    -57.33986507	     -5.26506379	     -7.32856938	     -0.26947761	      1.07081173	     -0.02980936	    125.94381806	     -4.88016434	     -9.62716999	    106.14270870	      1.85253974	     20.95252263	      5.73291543	      0.00000000	     91.06609275	    -11.97776349	      5.02547170	     46.99838320	      0.82027653	     -6.62095882	      5.32402725	      0.00000000	     -0.09755678	      1.04967359	      0.84170301	     -0.18117270	      1.39606587	      0.89430945	     -0.16027604	      2.55217636	      0.89430945	     -0.11149765	      2.55217636	      0.73649013	     -0.09059123	      2.14049438	      0.68388369	     -0.05574395	      1.62594438	      0.63127726	     -0.69683835	     11.87411754	      4.68129962	      0.00000000	      0.00000000	      0.00000000	      0.00000000	      0.00000001	     62.05617385	    -11.46540895	     15.32480481	     42.24501072	     68.33494031	      0.00000000	      3.06990930	     52.87397608	    -11.39762910	     -1.25900344	     49.45376807	     67.41324247	      0.00000000	      3.06990930
      0.04200000	    -57.47729638	     -5.85495387	     -6.99282344	     -0.26973169	      1.07136627	     -0.03062486	    125.78292720	     -5.21288593	    -10.02672914	    104.53281938	      1.82444187	     20.85431761	      5.19819416	      0.00000000	     91.56600610	    -11.70461988	      5.68399476	     48.72861554	      0.85047478	     -6.14872047	      4.60855187	      0.00000000	     -0.09814099	      1.13171030	      0.77679895	     -0.18225763	      1.50517471	      0.82534888	     -0.16123583	      2.75164043	      0.82534888	     -0.11216533	      2.75164043	      0.67969908	     -0.09113372	      2.30778365	      0.63114914	     -0.05607776	      1.75301926	      0.58259921	     -0.70101125	     12.80213331	      4.32032270	      0.00000000	      0.00000000	      0.00000000	      0.00000000	      0.00000001	     62.27523822	    -11.52356639	     15.42597601	     42.21308639	     67.52400311	      0.00000000	      3.14510481	     52.86644674	    -11.09337912	     -1.66156708	     49.55939332	     66.72390363	      0.00000000	      3.14510481
      0.05000000	    -57.56902565	     -6.19575604	     -6.31597550	     -0.27012683	      1.07205078	     -0.03169099	    125.54437393	     -5.60133078	     -9.98034446	    102.67369181	      1.79199398	     20.82517548	      4.62086883	      0.00000000	     92.14385996	    -11.10024261	      6.05364745	     50.74539717	      0.88567426	     -6.05904004	      4.03974121	      0.00000000	     -0.09849130	      1.17643312	      0.65047094	     -0.18290819	      1.56465606	      0.69112537	     -0.16181135	      2.86037950	      0.69112537	     -0.11256571	      2.86037950	      0.56916207	     -0.09145902	      2.39898243	      0.52850764	     -0.05627793	      1.82229491	      0.48785320	     -0.70351350	     13.30804680	      3.61772421	      0.00000000	      0.00000000	     -0.00000000	      0.00000000	      0.00000000	     62.71749570	    -12.09850418	     21.31857220	     42.30422309	     23.14183296	      0.00000000	      6.16043819	     52.97526129	    -11.14704667	      1.27774116	     49.53958691	     33.75722630	      0.00000000	      6.16043819
      0.05800000	    -57.64597330	     -6.19023819	     -5.46856011	     -0.27073284	      1.07270763	     -0.03260883	    125.26745874	     -5.89231315	     -9.49801450	    100.53333442	      1.75463769	     20.74573749	      4.35571296	      0.00000000	     92.77561471	    -10.32340645	      6.12700354	     53.02700991	      0.92549592	     -5.73371428	      3.74239699	      0.00000000	     -0.09844581	      1.17140224	      0.49592991	     -0.18282371	      1.55796498	      0.52692552	     -0.16173662	      2.84814741	      0.52692552	     -0.11251372	      2.84814741	      0.43393867	     -0.09141678	      2.38872345	      0.40294305	     -0.05625194	      1.81450207	      0.37194743	     -0.70318857	     13.25113645	      2.75821336	      0.00000000	      0.00000000	     -0.00000000	      0.00000000	      0.00000000	     62.79047057	    -12.03675327	     21.23855543	     42.39928850	     23.26636722	      0.00000000	      6.14073482	     53.17925480	    -11.15408645	      1.22341921	     49.57163977	     33.80450680	      0.00000000	      6.14073482
      0.06700000	    -57.74076510	     -6.23808967	     -4.59423834	     -0.27148369	      1.07344855	     -0.03358523	    124.75048572	     -6.17452244	     -9.05456114	     98.02612750	      1.71087868	     20.74082069	      3.95448349	      0.00000000	     93.62633394	     -9.46491137	      6.35052594	     55.66490547	      0.97153588	     -5.39505333	      3.31829638	      0.00000000	     -0.09802975	      1.17205131	      0.33983582	     -0.18205105	      1.55882824	      0.36107556	     -0.16105308	      2.84972555	      0.36107556	     -0.11203820	      2.84972555	      0.29735635	     -0.09103043	      2.39004703	      0.27611661	     -0.05601420	      1.81550748	      0.25487687	     -0.70021672	     13.25847881	      1.89006490	      0.00000000	      0.00000000	     -0.00000000	      0.00000000	      0.00000000	     62.89244603	    -11.99278350	     21.13685595	     42.46491201	     23.39964019	      0.00000000	      6.11988424	     53.36463188	    -11.15123426	      1.17620280	     49.64308151	     33.85848872	      0.00000000	      6.11988424
